<svg width="18" height="12" viewBox="0 0 18 12" fill="none" xmlns="http://www.w3.org/2000/svg">
<path fill-rule="evenodd" clip-rule="evenodd" d="M11.9949 10.7223C12.4187 11.2591 12.9272 11.8666 12.9272 11.8666C16.0492 11.7677 17.25 9.71929 17.25 9.71929C17.25 5.17049 15.2158 1.48342 15.2158 1.48342C13.1815 -0.0422627 11.2461 0.000117396 11.2461 0.000117396L11.0484 0.226145C13.4499 0.960734 14.5659 2.02024 14.5659 2.02024C13.0967 1.21501 11.6558 0.819467 10.3138 0.664074C9.29666 0.55106 8.32192 0.579313 7.46019 0.692327C7.38619 0.692327 7.32297 0.703092 7.25171 0.715225C7.24134 0.71699 7.2308 0.718785 7.22003 0.72058C6.7256 0.76296 5.52483 0.946607 4.01327 1.61056C3.49058 1.85072 3.1798 2.02024 3.1798 2.02024C3.1798 2.02024 4.35231 0.904228 6.89512 0.169639L6.75385 0.000117396C6.75385 0.000117396 4.81849 -0.0422627 2.78425 1.48342C2.78425 1.48342 0.75 5.17049 0.75 9.71929C0.75 9.71929 1.93664 11.7677 5.05865 11.8666C5.05865 11.8666 5.58134 11.2309 6.00514 10.694C4.21105 10.1572 3.53296 9.02709 3.53296 9.02709C3.53296 9.02709 3.67423 9.12597 3.92851 9.26724C3.94264 9.28137 3.95676 9.29549 3.98502 9.30962C4.00621 9.32375 4.0274 9.33434 4.04859 9.34494C4.06978 9.35553 4.09097 9.36613 4.11216 9.38025C4.46533 9.57803 4.81849 9.73342 5.14341 9.86056C5.7226 10.0866 6.41481 10.3126 7.22003 10.468C8.27954 10.6658 9.52269 10.7364 10.8789 10.4821C11.5428 10.3691 12.2209 10.1714 12.9272 9.87469C13.4217 9.69104 13.9726 9.42264 14.5518 9.04121C14.5518 9.04121 13.8455 10.1996 11.9949 10.7223ZM4.91741 6.83745C4.91741 5.97572 5.55311 5.26938 6.35833 5.26938C7.16356 5.26938 7.81338 5.97572 7.79926 6.83745C7.79926 7.69918 7.16356 8.40551 6.35833 8.40551C5.56724 8.40551 4.91741 7.69918 4.91741 6.83745ZM10.0737 6.83745C10.0737 5.97572 10.7094 5.26938 11.5146 5.26938C12.3198 5.26938 12.9555 5.97572 12.9555 6.83745C12.9555 7.69918 12.3198 8.40551 11.5146 8.40551C10.7235 8.40551 10.0737 7.69918 10.0737 6.83745Z" fill="white"/>
</svg>
