<svg width="16" height="15" viewBox="0 0 16 15" fill="none" xmlns="http://www.w3.org/2000/svg">
<path fill-rule="evenodd" clip-rule="evenodd" d="M14.8397 2.1439L15.9007 2.26782L15.4238 3.22369C15.1912 3.68984 14.9583 4.15598 14.7253 4.62213C14.6976 4.72086 14.6491 4.80741 14.5772 4.9201C14.5472 4.96719 14.4447 5.11696 14.4399 5.12415C14.4128 5.16476 14.3928 5.19678 14.3784 5.22243V7.01384C14.3784 11.5978 9.94214 14.5108 5.75266 14.5108C4.89538 14.5108 4.24405 14.4697 3.49823 14.3069C2.27086 14.0391 1.35746 13.5067 0.93948 12.5762L0.509158 11.6182L1.55494 11.522C2.501 11.435 3.32127 11.2548 3.95119 11.0134C2.22183 10.7353 1.2527 9.97579 1.2527 8.54936V7.79936H2.0027C2.16748 7.79936 2.31607 7.78599 2.44891 7.76145C1.151 6.98543 0.500916 5.74054 0.500916 4.01384C0.500774 3.94024 0.500774 3.94024 0.500332 3.86155C0.495456 2.99121 0.542204 2.52617 0.780461 1.93264C0.933157 1.55225 1.15387 1.20011 1.45092 0.877446L2.01688 0.262695L2.56713 0.891546C4.38045 2.9639 6.17296 4.22116 8.00313 4.37324C8.01095 2.46098 9.45615 1.01384 11.3783 1.01384C12.2743 1.01384 13.0871 1.35396 13.7259 1.96724C14.0755 2.03908 14.4467 2.09801 14.8397 2.1439ZM13.1815 3.38422L12.9516 3.33216L12.7928 3.15792C12.4088 2.73662 11.927 2.51385 11.3783 2.51385C10.281 2.51385 9.5031 3.29564 9.5031 4.38885C9.5031 4.56751 9.49848 4.67977 9.47622 4.82732C9.38742 5.41608 9.05718 5.88885 8.37808 5.88885C6.12955 5.88885 4.10102 4.68427 2.12292 2.62692C2.02095 2.93692 1.99696 3.25557 2.00031 3.85316C2.00076 3.93309 2.00076 3.93309 2.00092 4.01385C2.00092 5.54986 2.6232 6.39004 4.0966 6.85835L4.61942 7.02452V7.57311C4.61942 8.23835 3.98917 8.86457 3.06702 9.14506C3.48974 9.46578 4.35426 9.63885 5.75292 9.63885H6.50292V10.3889C6.50292 11.4634 5.26822 12.3047 3.40307 12.7441C4.01134 12.9305 4.82125 13.0108 5.75266 13.0108C9.21348 13.0108 12.8784 10.6043 12.8784 7.01385V5.13885C12.8784 4.91851 12.9423 4.72726 13.0484 4.5284C13.0899 4.45065 13.1355 4.37653 13.1919 4.29199C13.2025 4.27608 13.2419 4.21841 13.2732 4.1723L13.3326 4.05343C13.4289 3.8608 13.5252 3.66817 13.6214 3.47554C13.4719 3.4472 13.3252 3.41677 13.1815 3.38422Z" fill="white"/>
</svg>
